<svg width="57" height="44" viewBox="0 0 57 44" fill="none" xmlns="http://www.w3.org/2000/svg">
<path d="M31.5853 41.1046C24.1773 41.1046 16.8517 41.1046 9.45199 41.1046C9.45199 40.8729 9.45199 40.6634 9.45199 40.4511C9.45199 33.5355 9.45473 26.6172 9.44101 19.7016C9.44101 19.2687 9.56996 19.0316 9.9431 18.8082C15.9984 15.1712 22.0427 11.5204 28.0871 7.86686C28.3697 7.6959 28.5782 7.66557 28.8827 7.85032C34.9573 11.5287 41.0427 15.1933 47.1173 18.8744C47.3121 18.993 47.5233 19.2797 47.5261 19.4921C47.559 21.3257 47.5453 23.1594 47.5453 24.9876C41.6271 21.6428 36.2742 22.1833 31.8267 27.4913C28.8965 30.9904 28.4246 36.6045 31.5853 41.1046Z" fill="#0C314E"/>
<path d="M57 18.1575C56.5884 18.1575 56.3388 18.1575 56.0918 18.1575C54.0697 18.1575 52.0449 18.1713 50.0228 18.1409C49.6524 18.1354 49.2409 18.0169 48.9199 17.8266C42.2582 13.889 35.6075 9.93767 28.9623 5.97529C28.6029 5.76021 28.3532 5.78503 28.0075 5.99183C21.3431 9.96524 14.676 13.9276 7.99783 17.8762C7.70975 18.0472 7.33661 18.1409 6.99913 18.1437C4.72188 18.1658 2.44462 18.1547 0 18.1547C0.285343 17.9507 0.444477 17.8266 0.611841 17.7163C5.57791 14.5425 10.544 11.3632 15.5238 8.21154C15.9902 7.9165 16.1356 7.60491 16.1274 7.07273C16.0972 4.9192 16.1164 2.76567 16.1164 0.6149C16.1164 0.419125 16.1164 0.226107 16.1164 0C18.026 0 19.8835 0 21.815 0C21.815 1.35113 21.815 2.70777 21.815 4.16092C22.1113 3.9872 22.3144 3.87415 22.5092 3.75006C24.3557 2.58644 26.2049 1.42558 28.0404 0.245409C28.3642 0.0358462 28.5892 0.013787 28.9321 0.231622C38.0988 6.08558 47.2736 11.923 56.4458 17.7659C56.5912 17.8569 56.7229 17.9589 57 18.1575Z" fill="#0C314E"/>
<path d="M31.3521 34.382C31.3658 29.143 35.6651 24.8497 40.8891 24.858C46.1323 24.8635 50.4124 29.1954 50.396 34.4758C50.3795 39.7424 46.0582 44.0302 40.7986 43.9998C35.591 43.9695 31.3383 39.6376 31.3521 34.382ZM41.8192 40.1284C42.2225 39.9685 42.6039 39.8555 42.9496 39.679C44.8592 38.7001 45.2762 36.235 43.7947 34.6771C43.0319 33.8747 42.0634 33.552 40.9741 33.4528C40.4666 33.4059 39.9123 33.2487 39.4926 32.9675C38.7737 32.4877 38.8012 31.6632 39.4542 31.0952C40.291 30.3645 41.7232 30.4445 42.4832 31.2524C42.5957 31.3709 42.7466 31.5281 42.8865 31.5364C43.4709 31.5695 44.058 31.5502 44.8071 31.5502C44.5217 30.9601 44.401 30.3672 44.0416 30.0364C43.4215 29.4683 42.6505 29.063 41.8137 28.5032C41.8137 28.0869 41.8137 27.4554 41.8137 26.8047C41.169 26.8047 40.5681 26.8047 39.9261 26.8047C39.9261 27.472 39.9261 28.1062 39.9261 28.7294C39.5557 28.8645 39.2154 28.9637 38.8944 29.1126C36.9766 30.0033 36.4498 32.4188 37.8271 34.0318C38.5954 34.9307 39.6105 35.292 40.7656 35.394C41.243 35.4354 41.7616 35.5512 42.1594 35.7966C43.01 36.3205 42.977 37.2718 42.1649 37.8563C41.2842 38.4878 39.9755 38.3499 39.2319 37.5586C39.1222 37.4427 38.9603 37.3131 38.8149 37.3049C38.2497 37.2745 37.679 37.2938 37.0809 37.2938C37.3223 39.0062 38.4362 39.7369 39.9562 40.0926C39.9562 40.7682 39.9562 41.4162 39.9562 42.0448C40.6065 42.0448 41.1936 42.0448 41.8219 42.0448C41.8192 41.3831 41.8192 40.7516 41.8192 40.1284Z" fill="#0C314E"/>
</svg>