<svg width="31" height="52" viewBox="0 0 31 52" fill="none" xmlns="http://www.w3.org/2000/svg">
<path fill-rule="evenodd" clip-rule="evenodd" d="M8.58125 1.20723C8.83007 1.01376 9.15428 0.94602 9.45975 1.02369L29.5873 6.1412C30.04 6.2563 30.3569 6.66385 30.3569 7.13093V46.3624C30.3569 46.8417 30.0235 47.2566 29.5554 47.3597L9.42784 51.7944C9.12565 51.861 8.80958 51.787 8.56838 51.5931C8.32719 51.3993 8.18689 51.1066 8.18689 50.7971V2.01341C8.18689 1.69823 8.33243 1.4007 8.58125 1.20723ZM10.2293 3.32676V49.5264L28.3144 45.5417V7.92498L10.2293 3.32676Z" fill="#0C314E"/>
<path fill-rule="evenodd" clip-rule="evenodd" d="M0.511108 3.38086H9.20808V5.42329H2.55354V45.0005H3.92256V6.45116H9.20826V8.49359H5.96499V47.043H0.511108V3.38086Z" fill="#0C314E"/>
<path fill-rule="evenodd" clip-rule="evenodd" d="M13.3016 25.3803C13.0181 25.3803 12.7879 25.6102 12.7879 25.8944C12.7879 26.1783 13.0177 26.4081 13.3016 26.4081C13.5858 26.4081 13.8157 26.178 13.8157 25.8944C13.8157 25.6105 13.5855 25.3803 13.3016 25.3803ZM10.7455 25.8944C10.7455 24.4829 11.8894 23.3379 13.3016 23.3379C14.7135 23.3379 15.8581 24.4825 15.8581 25.8944C15.8581 27.3066 14.7132 28.4505 13.3016 28.4505C11.8897 28.4505 10.7455 27.3063 10.7455 25.8944Z" fill="#0C314E"/>
</svg>